<svg width="21" height="21" viewBox="0 0 21 21" fill="none" xmlns="http://www.w3.org/2000/svg">
<path fill-rule="evenodd" clip-rule="evenodd" d="M11.2667 13.0909H4.06667V13.9091H17.9333V10.5C17.9333 8.95448 16.9672 8.09091 16.2 8.09091H11.2667V13.0909ZM10.2 7.5C10.2 7.22375 10.379 7 10.6 7H16.2C17.7465 7 19 8.56688 19 10.5V16.5C19 16.7763 18.821 17 18.6 17H17.8C17.579 17 17.4 16.7763 17.4 16.5V15H4.6V16.5C4.6 16.7763 4.421 17 4.2 17H3.4C3.179 17 3 16.7763 3 16.5V5.5C3 5.22375 3.179 5 3.4 5H4.2C4.421 5 4.6 5.22375 4.6 5.5V12H10.2V7.5ZM9.13333 10.3469C9.63356 9.88931 9.93333 9.23075 9.93333 8.5C9.93333 8.15214 9.87173 7.81286 9.75445 7.5C9.6504 7.22243 9.50252 6.96565 9.31495 6.74209C8.87617 6.21914 8.22021 5.87802 7.4 5.87802C6.69379 5.87802 6.09592 6.16862 5.66667 6.62458C5.20796 7.11183 4.94181 7.78791 4.94181 8.5C4.94181 9.21325 5.20727 9.85772 5.66667 10.3136C5.94592 10.5908 6.29682 10.7982 6.70332 10.9091C6.9205 10.9683 7.15354 11 7.4 11C7.64646 11 7.88163 10.9683 8.10233 10.9091C8.49876 10.8027 8.84853 10.6074 9.13333 10.3469ZM7.4 9.90909C8.29423 9.90909 8.86667 9.25904 8.86667 8.5C8.86667 7.64377 8.30139 6.96893 7.4 6.96893C6.61622 6.96893 6.00848 7.62993 6.00848 8.5C6.00848 9.303 6.54855 9.90909 7.4 9.90909Z" fill="#0C9EE4"/>
</svg>
